<?xml version="1.0" standalone="no"?>
<!DOCTYPE svg PUBLIC "-//W3C//DTD SVG 20010904//EN"
 "http://www.w3.org/TR/2001/REC-SVG-20010904/DTD/svg10.dtd">
<svg version="1.0" xmlns="http://www.w3.org/2000/svg"
 width="400.000000pt" height="400.000000pt" viewBox="0 0 400.000000 400.000000"
 preserveAspectRatio="xMidYMid meet">
<metadata>
Created by potrace 1.14, written by Peter Selinger 2001-2017
</metadata>
<g transform="translate(0.000000,400.000000) scale(0.100000,-0.100000)"
fill="#000000" stroke="none">
<path d="M835 3993 c-386 -50 -611 -194 -737 -472 -33 -71 -72 -213 -85 -307
-10 -73 -11 -2322 -1 -2419 18 -169 90 -363 176 -472 131 -165 317 -265 577
-309 22 -4 567 -8 1210 -10 1308 -2 1271 -4 1475 66 156 53 282 145 374 271
35 47 68 109 107 204 17 40 48 175 56 242 11 90 10 2372 0 2442 -42 271 -152
469 -333 599 -86 62 -252 128 -374 148 -25 4 -56 9 -70 12 -28 6 -2329 11
-2375 5z"/>
</g>
</svg>
